<svg width="600" height="400" xmlns="http://www.w3.org/2000/svg">
  <defs>
    <linearGradient id="grad4" x1="0%" y1="0%" x2="100%" y2="100%">
      <stop offset="0%" style="stop-color:#ec4899;stop-opacity:1" />
      <stop offset="100%" style="stop-color:#be185d;stop-opacity:1" />
    </linearGradient>
  </defs>
  <rect width="600" height="400" fill="url(#grad4)"/>
  <!-- Web Design -->
  <rect x="50" y="40" width="500" height="320" fill="white" rx="10"/>
  <rect x="50" y="40" width="500" height="60" fill="#ec4899" rx="10" ry="0"/>
  <text x="300" y="75" font-size="16" text-anchor="middle" fill="white" font-weight="bold">FashionHub - Modern E-Commerce UI</text>
  <!-- Grid of Products -->
  <rect x="70" y="120" width="140" height="160" fill="#f3f4f6" rx="8"/>
  <rect x="75" y="125" width="130" height="100" fill="#fbcfe8" rx="6"/>
  <text x="140" y="180" font-size="24" text-anchor="middle">👗</text>
  <text x="140" y="210" font-size="11" text-anchor="middle" fill="#be185d" font-weight="bold">Dress</text>
  <rect x="230" y="120" width="140" height="160" fill="#f3f4f6" rx="8"/>
  <rect x="235" y="125" width="130" height="100" fill="#fbcfe8" rx="6"/>
  <text x="300" y="180" font-size="24" text-anchor="middle">👠</text>
  <text x="300" y="210" font-size="11" text-anchor="middle" fill="#be185d" font-weight="bold">Shoes</text>
  <rect x="390" y="120" width="140" height="160" fill="#f3f4f6" rx="8"/>
  <rect x="395" y="125" width="130" height="100" fill="#fbcfe8" rx="6"/>
  <text x="460" y="180" font-size="24" text-anchor="middle">🧥</text>
  <text x="460" y="210" font-size="11" text-anchor="middle" fill="#be185d" font-weight="bold">Jacket</text>
</svg>