<svg width="600" height="400" xmlns="http://www.w3.org/2000/svg">
  <defs>
    <linearGradient id="grad3" x1="0%" y1="0%" x2="100%" y2="100%">
      <stop offset="0%" style="stop-color:#06b6d4;stop-opacity:1" />
      <stop offset="100%" style="stop-color:#0e7490;stop-opacity:1" />
    </linearGradient>
  </defs>
  <rect width="600" height="400" fill="url(#grad3)"/>
  <!-- Dashboard -->
  <rect x="40" y="30" width="520" height="340" fill="white" rx="10"/>
  <rect x="40" y="30" width="150" height="340" fill="#0e7490" rx="10" ry="0"/>
  <text x="75" y="70" font-size="14" fill="white" font-weight="bold">Logistik Pro</text>
  <circle cx="115" cy="100" r="8" fill="#06b6d4"/>
  <text x="130" y="105" font-size="12" fill="white">Dashboard</text>
  <circle cx="115" cy="130" r="8" fill="#06b6d4"/>
  <text x="130" y="135" font-size="12" fill="white">Orders</text>
  <circle cx="115" cy="160" r="8" fill="#06b6d4"/>
  <text x="130" y="165" font-size="12" fill="white">Tracking</text>
  <!-- Content Area -->
  <text x="230" y="65" font-size="16" fill="#0e7490" font-weight="bold">Shipment Overview</text>
  <rect x="210" y="90" width="340" height="60" fill="#cffafe" rx="5"/>
  <text x="230" y="115" font-size="12" fill="#0e7490">📦 Total Packages: 1,240</text>
  <text x="230" y="135" font-size="12" fill="#0e7490">✅ Delivered: 892 | ⏳ In Transit: 348</text>
  <rect x="210" y="170" width="160" height="80" fill="#e0f2fe" rx="5"/>
  <text x="230" y="195" font-size="11" fill="#0e7490" font-weight="bold">On Time</text>
  <text x="230" y="215" font-size="20" text-anchor="start" fill="#06b6d4" font-weight="bold">94.5%</text>
  <rect x="390" y="170" width="160" height="80" fill="#e0f2fe" rx="5"/>
  <text x="410" y="195" font-size="11" fill="#0e7490" font-weight="bold">Revenue</text>
  <text x="410" y="215" font-size="20" text-anchor="start" fill="#06b6d4" font-weight="bold">Rp 2.5M</text>
</svg>