<svg width="600" height="400" xmlns="http://www.w3.org/2000/svg">
  <defs>
    <linearGradient id="grad6" x1="0%" y1="0%" x2="100%" y2="100%">
      <stop offset="0%" style="stop-color:#10b981;stop-opacity:1" />
      <stop offset="100%" style="stop-color:#047857;stop-opacity:1" />
    </linearGradient>
  </defs>
  <rect width="600" height="400" fill="url(#grad6)"/>
  <!-- Mobile App - Health & Fitness -->
  <rect x="130" y="30" width="340" height="340" fill="black" rx="25"/>
  <rect x="145" y="45" width="310" height="310" fill="#f9fafb" rx="18"/>
  <!-- Header -->
  <rect x="145" y="45" width="310" height="50" fill="#10b981" rx="18" ry="0"/>
  <text x="300" y="77" font-size="14" text-anchor="middle" fill="white" font-weight="bold">FitTrack Pro</text>
  <!-- Stats -->
  <circle cx="210" cy="140" r="35" fill="#d1fae5"/>
  <text x="210" y="142" font-size="16" text-anchor="middle" fill="#10b981" font-weight="bold">8.5k</text>
  <text x="210" y="158" font-size="10" text-anchor="middle" fill="#047857">Steps</text>
  <circle cx="300" cy="140" r="35" fill="#d1fae5"/>
  <text x="300" y="142" font-size="16" text-anchor="middle" fill="#10b981" font-weight="bold">4.2k</text>
  <text x="300" y="158" font-size="10" text-anchor="middle" fill="#047857">Calories</text>
  <circle cx="390" cy="140" r="35" fill="#d1fae5"/>
  <text x="390" y="142" font-size="16" text-anchor="middle" fill="#10b981" font-weight="bold">7h</text>
  <text x="390" y="158" font-size="10" text-anchor="middle" fill="#047857">Active</text>
  <!-- Workout List -->
  <rect x="160" y="200" width="280" height="45" fill="#ecfdf5" rx="6"/>
  <text x="175" y="220" font-size="12" fill="#10b981" font-weight="bold">🏃 Morning Run</text>
  <text x="175" y="235" font-size="10" fill="#047857">5.2 km • 35 min</text>
  <rect x="160" y="260" width="280" height="45" fill="#ecfdf5" rx="6"/>
  <text x="175" y="280" font-size="12" fill="#10b981" font-weight="bold">🏋️ Weight Training</text>
  <text x="175" y="295" font-size="10" fill="#047857">12 exercises • 45 min</text>
</svg>